# xmcd
#
# Track frame offsets:
#	150
#	95872
#	186294
#	205551
#	264757
#	297485
#	317159
#	345653
#
# Disc length: 4794 seconds
#
# Revision: 1
# Processed by: cddbd v1.5.1PL0 Copyright (c) Steve Scherf et al.
# Submitted via: audiograbber 1.81.02
#
DISCID=7712b808
DTITLE=Pacific gas and Electric Company - Custom Music CD
DYEAR=1900
DGENRE=Classic Rock
TTITLE0=Pacific Gas and Electric - Side I
TTITLE1=Pacific Gas and Electric - Side 2
TTITLE2=Artist - Audience track 5
TTITLE3=Artist - Audience side 1
TTITLE4=Artist - King Crimson, 21st century schizoid man
TTITLE5=Artist - Budgie, smile boy smile
TTITLE6=Artist - Budgie, in for the kill
TTITLE7=The Get Up Kids - Track 09
EXTD=
EXTT0=
EXTT1=
EXTT2=
EXTT3=
EXTT4=
EXTT5=
EXTT6=
EXTT7=
PLAYORDER=
